<svg width="154" height="75" viewBox="0 0 154 75" fill="none" xmlns="http://www.w3.org/2000/svg">
<path d="M150.32 12.2545C148.161 12.2545 146.654 10.7019 146.654 8.59085C146.654 6.46622 148.161 4.89999 150.32 4.89999C152.493 4.89999 154 6.46622 154 8.59085C154 10.7019 152.493 12.2545 150.32 12.2545ZM148.568 10.77H149.465V9.44888H150.755L151.515 10.77H152.479L151.596 9.2582C152.045 9.04029 152.37 8.63171 152.37 7.97798C152.37 7.06548 151.732 6.50708 150.564 6.50708H148.568V10.77ZM149.465 8.68619V7.28339H150.592C151.108 7.28339 151.42 7.5013 151.42 7.97798C151.42 8.44104 151.108 8.68619 150.592 8.68619H149.465Z" fill="white"/>
<path d="M19.3279 22.4704H24.9367L29.7118 20.4277L27.6654 33.2895L23.5724 31.2468H17.9635L15.1591 48.7238L17.054 52.9606H0L3.03182 48.7238L10.0808 4.23688L8.33751 3.05176e-05H37.5946L35.5481 13.0132L27.5138 8.77635H21.5259L19.3279 22.4704Z" fill="white"/>
<path d="M44.1355 49.102L45.803 52.9606H30.1891L33.0694 49.102L38.4508 14.829L36.7833 10.9704H57.8545L56.0354 22.7731L51.2603 18.9145H51.0329C50.2749 18.9145 49.6938 19.1415 49.2896 19.5954C48.8853 20.0494 48.6327 20.6294 48.5316 21.3356L44.1355 49.102Z" fill="white"/>
<path d="M67.9382 52.9606H52.3244L55.2046 49.102L60.5861 14.829L58.9186 10.9704H72.2586L66.2707 49.102L67.9382 52.9606ZM61.723 7.7928L62.9357 3.05176e-05H74.0019L72.7892 7.7928H61.723Z" fill="white"/>
<path d="M84.0691 43.2764C84.0185 43.4781 83.9933 43.6799 83.9933 43.8816C83.9933 44.6382 84.4733 45.0165 85.4334 45.0165L88.6168 43.2764L87.1009 52.9606H76.5653C73.6346 52.9606 72.1692 51.6996 72.1692 49.1777C72.1692 48.9255 72.1692 48.6733 72.1692 48.4211C72.2197 48.1689 72.2702 47.9167 72.3208 47.6645L76.8685 18.9145H73.9125L75.1252 10.9704H78.0812L78.9908 5.59872L90.4359 3.32898L89.2232 10.9704H93.6951L92.4824 18.9145H88.0104L84.0691 43.2764Z" fill="white"/>
<path d="M104.202 43.2764C104.152 43.4781 104.126 43.6799 104.126 43.8816C104.126 44.6382 104.607 45.0165 105.567 45.0165L108.75 43.2764L107.234 52.9606H96.6985C93.7677 52.9606 92.3024 51.6996 92.3024 49.1777C92.3024 48.9255 92.3024 48.6733 92.3024 48.4211C92.3529 48.1689 92.4034 47.9167 92.454 47.6645L97.0017 18.9145H94.0457L95.2584 10.9704H98.2144L99.124 5.59872L110.569 3.32898L109.356 10.9704H113.828L112.616 18.9145H108.144L104.202 43.2764Z" fill="white"/>
<path d="M116.225 16.2665C116.377 15.409 116.554 14.6525 116.756 13.9967C116.958 13.3411 117.261 12.7862 117.665 12.3323C118.12 11.8783 118.676 11.5505 119.333 11.3487C120.04 11.0965 120.975 10.9704 122.137 10.9704H139.267C142.198 10.9704 143.663 12.2062 143.663 14.6777C143.663 14.9299 143.638 15.2073 143.588 15.5099C143.588 15.7621 143.562 16.0143 143.512 16.2665L138.585 47.6645C138.332 49.4299 137.827 50.7665 137.069 51.6744C136.362 52.5319 134.896 52.9606 132.673 52.9606H115.543C112.612 52.9606 111.147 51.7248 111.147 49.2533C111.147 49.0012 111.172 48.749 111.223 48.4968C111.223 48.2446 111.248 47.9672 111.299 47.6645L116.225 16.2665ZM131.688 21.3356C131.738 21.0834 131.763 20.8816 131.763 20.7303C131.763 19.5198 131.157 18.9145 129.944 18.9145H129.035C128.277 18.9145 127.696 19.1415 127.291 19.5954C126.887 20.0494 126.635 20.6294 126.534 21.3356L123.123 42.5955C123.072 42.7468 123.047 42.9737 123.047 43.2764C123.047 44.4365 123.653 45.0165 124.866 45.0165H125.776C126.534 45.0165 127.115 44.7895 127.519 44.3356C127.923 43.8816 128.176 43.3016 128.277 42.5955L131.688 21.3356Z" fill="white"/>
<path d="M0.584866 63.4958C0.185445 64.2774 0 65.1747 0 66.1878C0 67.2299 0.185445 68.1273 0.584866 68.9088C0.984287 69.6904 1.54062 70.2838 2.26814 70.7035C2.99566 71.1377 3.85156 71.3403 4.82158 71.3403C5.57763 71.3403 6.26235 71.1956 6.86148 70.9061C7.46061 70.6167 7.94562 70.2114 8.31651 69.6759C8.6874 69.1549 8.92991 68.5325 9.04403 67.8089H7.40355C7.23237 68.4602 6.91854 68.9667 6.46206 69.3286C6.00558 69.7049 5.43498 69.8785 4.75025 69.8785C4.12259 69.8785 3.58052 69.7338 3.12404 69.4154C2.6533 69.097 2.29667 68.6628 2.05416 68.0983C1.79739 67.5483 1.68327 66.9115 1.68327 66.1878C1.68327 65.4642 1.79739 64.8273 2.05416 64.2774C2.29667 63.7274 2.6533 63.2932 3.12404 62.9748C3.58052 62.6564 4.12259 62.4971 4.75025 62.4971C5.43498 62.4971 6.00558 62.6853 6.47632 63.0471C6.93281 63.4234 7.24664 63.93 7.41782 64.5668H9.0583C8.94417 63.8721 8.70167 63.2498 8.33078 62.7142C7.94562 62.1787 7.44635 61.759 6.84722 61.4695C6.24808 61.1801 5.56336 61.0353 4.82158 61.0353C3.85156 61.0353 2.99566 61.2524 2.26814 61.6866C1.54062 62.1208 0.984287 62.7142 0.584866 63.4958Z" fill="white"/>
<path d="M16.2629 64.5668C15.7208 64.0313 15.0076 63.7563 14.1374 63.7563C13.1531 63.7563 12.3828 64.1471 11.8408 64.9142V61.1222H10.3001V71.2535H11.8408V67.5049C11.8408 66.7668 12.0119 66.1878 12.3543 65.7536C12.6967 65.3194 13.1817 65.1023 13.7951 65.1023C14.3657 65.1023 14.7936 65.2905 15.0932 65.6523C15.3927 66.0286 15.5497 66.5641 15.5497 67.2589V71.2535H17.0903V67.172C17.0903 65.9852 16.805 65.1168 16.2629 64.5668Z" fill="white"/>
<path d="M19.9321 61.1511C19.7467 60.9774 19.5185 60.8761 19.2617 60.8761C18.9907 60.8761 18.7624 60.9774 18.5912 61.1511C18.4058 61.3248 18.3202 61.5564 18.3202 61.8169C18.3202 62.0919 18.4058 62.3235 18.5912 62.4971C18.7624 62.6708 18.9907 62.7577 19.2617 62.7577C19.5185 62.7577 19.7467 62.6708 19.9321 62.4971C20.1033 62.3235 20.2032 62.0919 20.2032 61.8169C20.2032 61.5564 20.1033 61.3248 19.9321 61.1511ZM18.4914 63.8432V71.2535H20.032V63.8432H18.4914Z" fill="white"/>
<path d="M27.1769 70.6167C27.7618 70.1246 28.1326 69.4588 28.2753 68.5904H26.7061C26.6063 69.0246 26.4066 69.372 26.0927 69.6325C25.7789 69.893 25.3795 70.0088 24.9087 70.0088C24.2811 70.0088 23.7818 69.7917 23.4109 69.3286C23.04 68.8654 22.8546 68.272 22.8546 67.5339C22.8546 66.8102 23.04 66.2313 23.4109 65.7681C23.7818 65.3195 24.2811 65.0879 24.9087 65.0879C25.3652 65.0879 25.7504 65.2181 26.0642 65.4642C26.378 65.7247 26.5778 66.0576 26.6919 66.4773H28.2753C28.1326 65.6379 27.7618 64.9866 27.1912 64.4945C26.6063 64.0024 25.8645 63.7563 24.9515 63.7563C24.2098 63.7563 23.5678 63.9155 23.0115 64.2339C22.4552 64.5524 22.0272 64.9865 21.7276 65.551C21.4138 66.1299 21.2712 66.7812 21.2712 67.5339C21.2712 68.2865 21.4138 68.9522 21.7134 69.5312C22.0129 70.1101 22.4409 70.5588 22.9972 70.8772C23.5393 71.1956 24.1812 71.3403 24.9087 71.3403C25.8217 71.3403 26.5778 71.1088 27.1769 70.6167Z" fill="white"/>
<path d="M29.5106 61.1222V71.2535H31.0512V69.3575L32.3493 67.9681L34.5176 71.2535H36.3435L33.4477 66.8247L36.1723 63.8432H34.3892L31.0512 67.4615V61.1222H29.5106Z" fill="white"/>
<path d="M36.8839 65.5655C36.5843 66.1444 36.4417 66.8102 36.4417 67.5628C36.4417 68.3154 36.5843 68.9812 36.8982 69.5457C37.212 70.1246 37.64 70.5588 38.2106 70.8772C38.7812 71.1956 39.4374 71.3403 40.2077 71.3403C41.0778 71.3403 41.8053 71.1088 42.3902 70.6167C42.9751 70.1391 43.3317 69.5167 43.4744 68.7641H41.9337C41.8196 69.1838 41.6056 69.5022 41.2918 69.7338C40.9637 69.9654 40.5643 70.0667 40.0935 70.0667C39.4944 70.0667 39.0094 69.8785 38.6528 69.5022C38.2819 69.1259 38.0822 68.6194 38.0536 67.9681V67.8812H43.5599C43.5885 67.6786 43.6027 67.4904 43.6027 67.2878C43.5885 66.5786 43.4316 65.9563 43.1177 65.4208C42.8039 64.8997 42.3902 64.48 41.8481 64.1905C41.3061 63.9011 40.6927 63.7563 39.9937 63.7563C39.2947 63.7563 38.6813 63.9155 38.1392 64.2339C37.5972 64.5524 37.1835 64.9866 36.8839 65.5655ZM42.0336 66.7378H38.1107C38.1678 66.2168 38.3675 65.8115 38.7384 65.4931C39.1093 65.1747 39.5372 65.0155 40.0507 65.0155C40.5928 65.0155 41.035 65.1747 41.3917 65.4786C41.7483 65.7826 41.9623 66.2023 42.0336 66.7378Z" fill="white"/>
<path d="M50.811 64.5668C50.269 64.0313 49.5557 63.7563 48.6998 63.7563C47.687 63.7563 46.9024 64.1182 46.3603 64.8129L46.1892 63.8432H44.8483V71.2535H46.3889V67.5194C46.3889 66.7668 46.5601 66.1878 46.9024 65.7536C47.2448 65.3194 47.7298 65.1023 48.3432 65.1023C48.9138 65.1023 49.3417 65.2905 49.6413 65.6523C49.9266 66.0286 50.0835 66.5641 50.0835 67.2589V71.2535H51.6384V67.172C51.6384 65.9852 51.3531 65.1168 50.811 64.5668Z" fill="white"/>
<path d="M62.3811 64.2195C61.8533 63.9155 61.2542 63.7563 60.598 63.7563C59.5994 63.7563 58.8006 64.1616 58.23 64.9431V61.1222H56.6893V71.2535H58.0303L58.2157 70.1825C58.4582 70.5443 58.7863 70.8338 59.1857 71.0364C59.5852 71.239 60.0559 71.3403 60.598 71.3403C61.2542 71.3403 61.8533 71.1811 62.3811 70.8627C62.8946 70.5443 63.3083 70.1101 63.6079 69.5312C63.8932 68.9522 64.0501 68.3009 64.0501 67.5483C64.0501 66.7668 63.8932 66.101 63.6079 65.5221C63.3083 64.9576 62.8946 64.5234 62.3811 64.2195ZM61.8818 69.343C61.4824 69.8062 60.9689 70.0233 60.3412 70.0233C59.6993 70.0233 59.1857 69.7917 58.8006 69.3286C58.4012 68.8654 58.2157 68.272 58.2157 67.5339C58.2157 66.8102 58.4012 66.2313 58.8006 65.7681C59.1857 65.3195 59.6993 65.0879 60.3412 65.0879C60.9689 65.0879 61.4824 65.3194 61.8818 65.7826C62.2812 66.2457 62.4809 66.8247 62.4809 67.5483C62.4809 68.2865 62.2812 68.8799 61.8818 69.343Z" fill="white"/>
<path d="M65.9189 63.8432H64.2785L67.1315 71.3114L66.8319 72.0206C66.7035 72.339 66.5894 72.5561 66.4753 72.6429C66.3611 72.7298 66.1472 72.7732 65.8619 72.7732H64.7777V74.1482H66.4325C66.7748 74.1482 67.0601 74.0903 67.2741 73.9745C67.4738 73.8587 67.6593 73.6705 67.8019 73.439C67.9446 73.2074 68.1015 72.86 68.2727 72.4114L71.5821 63.8432H69.9417L67.9588 69.5601L65.9189 63.8432Z" fill="white"/>
<path d="M79.8342 61.1222H76.1681V71.2535H79.9626C81.1466 71.2535 82.0596 71.0075 82.7015 70.5009C83.3435 70.0088 83.6715 69.3141 83.6715 68.4312C83.6715 67.0997 82.9155 66.3036 81.4319 66.0431C82.0311 65.9128 82.4875 65.6523 82.8014 65.2616C83.1152 64.8708 83.2864 64.3642 83.2864 63.7563C83.2864 62.9313 82.9725 62.28 82.3734 61.8169C81.7743 61.3537 80.9184 61.1222 79.8342 61.1222ZM77.8086 65.4208V62.5116H79.877C80.4334 62.5116 80.8613 62.6419 81.1752 62.9024C81.489 63.1629 81.6459 63.5103 81.6459 63.9589C81.6459 64.4221 81.489 64.7695 81.1752 65.03C80.8613 65.2905 80.4334 65.4208 79.877 65.4208H77.8086ZM77.8086 69.8496V66.7957H79.9769C80.6046 66.7957 81.1038 66.9405 81.4605 67.201C81.8028 67.476 81.9883 67.8523 81.9883 68.3444C81.9883 68.822 81.8028 69.1983 81.4605 69.4588C81.1181 69.7193 80.6188 69.8496 79.9769 69.8496H77.8086Z" fill="white"/>
<path d="M86.5361 70.8772C87.1067 71.1956 87.7487 71.3403 88.4904 71.3403C89.218 71.3403 89.8599 71.1956 90.4305 70.8772C91.0011 70.5588 91.429 70.1246 91.7429 69.5457C92.0567 68.9667 92.2136 68.3009 92.2136 67.5483C92.2136 66.8102 92.0567 66.1589 91.7429 65.58C91.429 65.001 91.0011 64.5524 90.4305 64.2339C89.8599 63.9155 89.218 63.7563 88.4904 63.7563C87.7487 63.7563 87.1067 63.9155 86.5361 64.2339C85.9655 64.5524 85.5376 65.001 85.2237 65.58C84.9099 66.1589 84.7673 66.8102 84.7673 67.5483C84.7673 68.3009 84.9099 68.9667 85.2237 69.5457C85.5376 70.1246 85.9655 70.5588 86.5361 70.8772ZM90.0453 69.3286C89.6459 69.7917 89.1324 70.0088 88.4904 70.0088C87.8342 70.0088 87.3207 69.7917 86.9355 69.3286C86.5361 68.8654 86.3507 68.272 86.3507 67.5483C86.3507 66.8247 86.5361 66.2457 86.9355 65.7826C87.3207 65.3194 87.8342 65.0879 88.4904 65.0879C89.1324 65.0879 89.6459 65.3194 90.0453 65.7826C90.4448 66.2457 90.6445 66.8247 90.6445 67.5483C90.6445 68.272 90.4448 68.8654 90.0453 69.3286Z" fill="white"/>
<path d="M93.8675 65.2181V69.2417C93.8675 69.9364 94.0244 70.443 94.3382 70.7614C94.652 71.0943 95.1656 71.2535 95.8646 71.2535H97.3481V69.8785H96.1784C95.8931 69.8785 95.7077 69.8206 95.5936 69.7049C95.4794 69.5891 95.4224 69.372 95.4224 69.0825V65.2181H97.177V63.8432H95.4224V61.7735H93.8675V63.8432H92.5979V65.2181H93.8675Z" fill="white"/>
<path d="M99.6157 61.1511C99.4303 60.9774 99.202 60.8761 98.9453 60.8761C98.6742 60.8761 98.446 60.9774 98.2748 61.1511C98.0894 61.3248 98.0038 61.5564 98.0038 61.8169C98.0038 62.0919 98.0894 62.3235 98.2748 62.4971C98.446 62.6708 98.6742 62.7577 98.9453 62.7577C99.202 62.7577 99.4303 62.6708 99.6157 62.4971C99.7869 62.3235 99.8867 62.0919 99.8867 61.8169C99.8867 61.5564 99.7869 61.3248 99.6157 61.1511ZM98.1749 63.8432V71.2535H99.7156V63.8432H98.1749Z" fill="white"/>
<path d="M105.263 63.8432H104.92C104.35 63.8432 103.908 63.9445 103.58 64.1471C103.237 64.3497 102.966 64.6102 102.766 64.9576L102.595 63.8432H101.226V71.2535H102.766V67.5339C102.766 66.897 102.909 66.3615 103.194 65.9418C103.48 65.5221 103.936 65.305 104.578 65.305H105.263V63.8432Z" fill="white"/>
<path d="M119.277 69.922H118.307C118.122 69.922 117.965 69.9075 117.851 69.8496C117.722 69.8062 117.594 69.7049 117.48 69.5601L117.023 69.0536L119.191 65.7826H117.651L116.167 68.0983L114.341 66.0865C115.197 65.7392 115.796 65.3339 116.153 64.8708C116.495 64.4076 116.681 63.9011 116.681 63.3221C116.681 62.8879 116.567 62.4971 116.338 62.1498C116.11 61.8024 115.811 61.5419 115.426 61.3393C115.04 61.1367 114.612 61.0353 114.142 61.0353C113.571 61.0353 113.072 61.1511 112.63 61.3682C112.173 61.5853 111.831 61.8893 111.574 62.2656C111.317 62.6419 111.189 63.0761 111.189 63.5392C111.189 63.9734 111.246 64.3642 111.374 64.6826C111.488 65.001 111.731 65.3773 112.073 65.8115C111.303 66.1589 110.761 66.5786 110.418 67.0852C110.076 67.5918 109.919 68.1273 109.919 68.6773C109.919 69.5312 110.219 70.1825 110.846 70.6456C111.474 71.1088 112.273 71.3403 113.243 71.3403C114.27 71.3403 115.197 70.964 115.996 70.1825L116.381 70.6167C116.581 70.8627 116.823 71.0364 117.109 71.1232C117.394 71.2101 117.722 71.2535 118.093 71.2535H119.277V69.922ZM113.1 62.584C113.343 62.3524 113.657 62.2221 114.056 62.2221C114.398 62.2221 114.669 62.3379 114.869 62.5406C115.069 62.7577 115.183 63.0327 115.183 63.3655C115.183 64.1471 114.641 64.755 113.557 65.2181C113.243 64.8708 113.015 64.5668 112.901 64.3208C112.786 64.0892 112.729 63.8142 112.729 63.4958C112.729 63.134 112.844 62.83 113.1 62.584ZM115.169 69.2707C114.598 69.7917 113.97 70.0522 113.314 70.0522C112.772 70.0522 112.33 69.922 112.002 69.647C111.66 69.372 111.503 68.9812 111.503 68.4891C111.503 68.0838 111.588 67.751 111.788 67.4615C111.988 67.172 112.316 66.9115 112.801 66.651L112.829 66.6799L115.169 69.2707Z" fill="white"/>
<path d="M124.861 63.4958C124.461 64.2774 124.276 65.1747 124.276 66.1878C124.276 67.2299 124.461 68.1273 124.861 68.9088C125.26 69.6904 125.816 70.2838 126.544 70.7035C127.271 71.1377 128.127 71.3403 129.097 71.3403C129.853 71.3403 130.538 71.1956 131.137 70.9061C131.736 70.6167 132.221 70.2114 132.592 69.6759C132.963 69.1549 133.206 68.5325 133.32 67.8089H131.679C131.508 68.4602 131.194 68.9667 130.738 69.3286C130.281 69.7049 129.711 69.8785 129.026 69.8785C128.398 69.8785 127.856 69.7338 127.4 69.4154C126.929 69.097 126.572 68.6628 126.33 68.0983C126.073 67.5483 125.959 66.9115 125.959 66.1878C125.959 65.4642 126.073 64.8273 126.33 64.2774C126.572 63.7274 126.929 63.2932 127.4 62.9748C127.856 62.6564 128.398 62.4971 129.026 62.4971C129.711 62.4971 130.281 62.6853 130.752 63.0471C131.209 63.4234 131.522 63.93 131.694 64.5668H133.334C133.22 63.8721 132.977 63.2498 132.607 62.7142C132.221 62.1787 131.722 61.759 131.123 61.4695C130.524 61.1801 129.839 61.0353 129.097 61.0353C128.127 61.0353 127.271 61.2524 126.544 61.6866C125.816 62.1208 125.26 62.7142 124.861 63.4958Z" fill="white"/>
<path d="M136.074 70.8772C136.644 71.1956 137.286 71.3403 138.028 71.3403C138.756 71.3403 139.397 71.1956 139.968 70.8772C140.539 70.5588 140.967 70.1246 141.28 69.5457C141.594 68.9667 141.751 68.3009 141.751 67.5483C141.751 66.8102 141.594 66.1589 141.28 65.58C140.967 65.001 140.539 64.5524 139.968 64.2339C139.397 63.9155 138.756 63.7563 138.028 63.7563C137.286 63.7563 136.644 63.9155 136.074 64.2339C135.503 64.5524 135.075 65.001 134.761 65.58C134.447 66.1589 134.305 66.8102 134.305 67.5483C134.305 68.3009 134.447 68.9667 134.761 69.5457C135.075 70.1246 135.503 70.5588 136.074 70.8772ZM139.583 69.3286C139.183 69.7917 138.67 70.0088 138.028 70.0088C137.372 70.0088 136.858 69.7917 136.473 69.3286C136.074 68.8654 135.888 68.272 135.888 67.5483C135.888 66.8247 136.074 66.2457 136.473 65.7826C136.858 65.3194 137.372 65.0879 138.028 65.0879C138.67 65.0879 139.183 65.3194 139.583 65.7826C139.982 66.2457 140.182 66.8247 140.182 67.5483C140.182 68.272 139.982 68.8654 139.583 69.3286Z" fill="white"/>
</svg>
