<svg width="650" height="88" viewBox="0 0 650 88" fill="none" xmlns="http://www.w3.org/2000/svg">
<path d="M605.668 31.9199V45.9795H585.148V1.64742H635.687C644.237 1.64742 650 8.29723 650 16.7837C650 25.2701 644.237 31.9199 635.687 31.9199H605.668ZM605.668 11.9071V21.6602H624.857C627.707 21.6602 629.481 19.6336 629.481 16.7837C629.481 13.9337 627.707 11.9071 624.857 11.9071H605.668Z" fill="white"/>
<path d="M545.874 47.6261C527.951 47.6261 513.448 43.3196 513.448 25.4601V1.64742H533.968V27.6134C533.968 34.1365 539.288 36.7964 545.874 36.7964C552.461 36.7964 557.78 34.1365 557.78 27.6134V1.64742H578.3V25.4601C578.3 43.3196 563.797 47.6261 545.874 47.6261Z" fill="white"/>
<path d="M474.516 47.6253C455.39 47.6253 440.444 41.8622 440.444 23.8127C440.444 5.76317 455.39 0 474.516 0C493.642 0 508.588 5.76317 508.588 23.8127C508.588 41.8622 493.642 47.6253 474.516 47.6253ZM474.516 10.8297C466.346 10.8297 460.963 15.0729 460.963 23.8127C460.963 32.5524 466.346 36.7956 474.516 36.7956C482.686 36.7956 488.006 32.5524 488.006 23.8127C488.006 15.0729 482.686 10.8297 474.516 10.8297Z" fill="white"/>
<path d="M392.234 31.9199V45.9795H371.714V1.64742H422.253C430.803 1.64742 436.566 8.29723 436.566 16.7837C436.566 24.0035 431.626 29.83 424.913 31.4766L436.059 45.9795H415.477L404.71 31.9199H392.234ZM392.234 11.9071V21.6602H410.917C413.767 21.6602 416.047 19.6336 416.047 16.7837C416.047 13.9337 414.273 11.9071 411.423 11.9071H392.234Z" fill="white"/>
<path d="M330.982 47.6253C311.919 47.6253 296.403 41.8622 296.403 23.8127C296.403 5.76317 311.919 0 330.982 0C347.258 0 364.738 3.79989 364.738 16.5295H343.458C343.015 11.7797 336.492 10.8297 330.982 10.8297C322.812 10.8297 316.922 15.0729 316.922 23.8127C316.922 32.5524 322.812 36.7956 330.982 36.7956C336.682 36.7956 341.242 34.7057 343.522 30.5891H328.955L330.539 21.4061H364.738V45.9787H354.478L353.971 38.3156C349.285 44.2688 341.305 47.6253 330.982 47.6253Z" fill="white"/>
<path d="M274.918 16.847L298.414 45.9795H274.602L259.655 27.4234L250.789 33.5665V45.9795H230.269V1.64742H250.789V19.3169L276.248 1.64742H296.768L274.918 16.847Z" fill="white"/>
<path d="M170.768 15.4537V45.9795H157.785V1.64742H182.104L209.716 32.1732V1.64742H222.636V45.9795H198.317L170.768 15.4537Z" fill="white"/>
<path d="M148.72 30.9685H141.184L139.601 0.759369H150.304L148.72 30.9685ZM139.474 41.5449C139.474 39.6027 140.002 38.2517 141.057 37.4917C142.113 36.6895 143.4 36.2884 144.92 36.2884C146.398 36.2884 147.665 36.6895 148.72 37.4917C149.776 38.2517 150.304 39.6027 150.304 41.5449C150.304 43.4026 149.776 44.7537 148.72 45.5981C147.665 46.4003 146.398 46.8014 144.92 46.8014C143.4 46.8014 142.113 46.4003 141.057 45.5981C140.002 44.7537 139.474 43.4026 139.474 41.5449Z" fill="white"/>
<path d="M87.6973 28.9433V45.9795H67.1779V1.64742H87.6973V18.6836H111.51V1.64742H132.029V45.9795H111.51V28.9433H87.6973Z" fill="white"/>
<path d="M62.6983 1.64742V11.9071H41.6088V45.9795H21.0894V11.9071H0V1.64742H62.6983Z" fill="white"/>
<path d="M621.894 83.9764H608.867V73.2101H621.51C623.001 73.2101 624.093 74.4251 624.093 75.9324C624.093 77.0091 623.401 77.9473 622.463 78.3779C623.663 78.7317 624.616 79.8237 624.616 81.1157C624.616 82.6999 623.478 83.9764 621.894 83.9764ZM613.85 75.5787V77.409H618.126C618.633 77.409 619.11 76.9937 619.11 76.4861C619.11 75.9786 618.756 75.5787 618.249 75.5787H613.85ZM613.85 79.5161V81.6078H618.649C619.233 81.6078 619.633 81.1464 619.633 80.562C619.633 79.9775 619.095 79.5161 618.51 79.5161H613.85Z" fill="white"/>
<path d="M596.4 73.2101H601.844L607.951 83.9764H602.829L601.86 82.2692H594.8L593.831 83.9764H590.294L596.4 73.2101ZM596.184 79.8391H600.491L598.338 76.0401L596.184 79.8391Z" fill="white"/>
<path d="M576.226 73.2101H581.209V81.4848H590.145V83.9764H576.226V73.2101Z" fill="white"/>
<path d="M566.383 73.2101V75.7017H561.261V83.9764H556.278V75.7017H551.156V73.2101H566.383Z" fill="white"/>
<path d="M537.474 76.563V83.9764H534.321V73.2101H540.227L546.933 80.6235V73.2101H550.07V83.9764H544.164L537.474 76.563Z" fill="white"/>
<path d="M532.786 83.9764H518.867V73.2101H532.786V75.5787H523.85V77.409H532.002L531.602 79.6391H523.85V81.3464H532.786V83.9764Z" fill="white"/>
<path d="M500.992 76.6245V83.9764H497.839V73.2101H503.883L507.082 79.6699L510.312 73.2101H517.003V83.9764H512.019V76.6245L508.343 83.9764H504.668L500.992 76.6245Z" fill="white"/>
<path d="M496.301 83.9764H482.381V73.2101H496.301V75.5787H487.364V77.409H495.516L495.116 79.6391H487.364V81.3464H496.301V83.9764Z" fill="white"/>
<path d="M472.49 84.3779C467.86 84.3779 464.092 82.9782 464.092 78.5948C464.092 74.2113 467.86 72.8117 472.49 72.8117C476.443 72.8117 480.688 73.7345 480.688 76.826H475.52C475.412 75.6725 473.828 75.4418 472.49 75.4418C470.506 75.4418 469.075 76.4723 469.075 78.5948C469.075 80.7173 470.506 81.7478 472.49 81.7478C473.874 81.7478 474.981 81.2402 475.535 80.2405H471.998L472.382 78.0103H480.688V83.978H478.196L478.073 82.1169C476.935 83.5627 474.997 84.3779 472.49 84.3779Z" fill="white"/>
<path d="M452.869 73.2101H458.314L464.42 83.9764H459.298L458.329 82.2692H451.27L450.301 83.9764H446.763L452.869 73.2101ZM452.654 79.8391H456.96L454.807 76.0401L452.654 79.8391Z" fill="white"/>
<path d="M433.235 76.563V83.9764H430.082V73.2101H435.988L442.694 80.6235V73.2101H445.832V83.9764H439.925L433.235 76.563Z" fill="white"/>
<path d="M417.616 73.2101H423.061L429.167 83.9764H424.045L423.076 82.2692H416.016L415.047 83.9764H411.51L417.616 73.2101ZM417.401 79.8391H421.707L419.554 76.0401L417.401 79.8391Z" fill="white"/>
<path d="M394.559 76.6245V83.9764H391.406V73.2101H397.451L400.65 79.6699L403.88 73.2101H410.57V83.9764H405.587V76.6245L401.911 83.9764H398.235L394.559 76.6245Z" fill="white"/>
<path d="M381.113 83.9764H367.194V73.2101H381.113V75.5787H372.177V77.409H380.329L379.929 79.6391H372.177V81.3464H381.113V83.9764Z" fill="white"/>
<path d="M354.573 79.8391V83.9764H349.59V73.2101H354.573V77.3474H360.356V73.2101H365.339V83.9764H360.356V79.8391H354.573Z" fill="white"/>
<path d="M348.501 73.2101V75.7017H343.379V83.9764H338.396V75.7017H333.274V73.2101H348.501Z" fill="white"/>
<path d="M319.308 72.334H320.953V87.4684H319.308V72.334Z" fill="white"/>
<path d="M296.095 76.1647C296.218 77.5489 306.461 76.7491 306.584 80.8865C306.723 84.3779 302.754 84.3779 298.756 84.3779C294.772 84.3779 290.927 83.978 290.927 80.625H295.91C295.91 81.7786 297.264 82.0093 298.694 82.0093C300.124 82.0093 301.647 82.0093 301.555 81.0249C301.416 79.6407 291.188 80.625 291.065 76.4261C290.927 73.027 294.772 72.8117 298.756 72.8117C302.754 72.8117 306.461 73.1962 306.461 76.5646H301.601C301.601 75.411 300.247 75.1803 298.817 75.1803C297.402 75.1803 296.002 75.1803 296.095 76.1647Z" fill="white"/>
<path d="M289.791 83.9764H275.871V73.2101H289.791V75.5787H280.855V77.409H289.006L288.606 79.6391H280.855V81.3464H289.791V83.9764Z" fill="white"/>
<path d="M274.005 83.9764H269.022V73.2101H274.005V83.9764Z" fill="white"/>
<path d="M254.573 76.563V83.9764H251.42V73.2101H257.326L264.032 80.6235V73.2101H267.169V83.9764H261.263L254.573 76.563Z" fill="white"/>
<path d="M238.953 73.2101H244.397L250.503 83.9764H245.382L244.413 82.2692H237.353L236.384 83.9764H232.847L238.953 73.2101ZM238.737 79.8391H243.044L240.891 76.0401L238.737 79.8391Z" fill="white"/>
<path d="M223.088 80.562V83.9764H218.105V73.2101H230.379C232.455 73.2101 233.855 74.825 233.855 76.886C233.855 78.947 232.455 80.562 230.379 80.562H223.088ZM223.088 75.7017V78.0703H227.749C228.441 78.0703 228.871 77.5781 228.871 76.886C228.871 76.1939 228.441 75.7017 227.749 75.7017H223.088Z" fill="white"/>
<path d="M200.23 76.6245V83.9764H197.077V73.2101H203.122L206.321 79.6699L209.551 73.2101H216.241V83.9764H211.258V76.6245L207.582 83.9764H203.906L200.23 76.6245Z" fill="white"/>
<path d="M187.42 84.3779C182.775 84.3779 179.145 82.9782 179.145 78.5948C179.145 74.2113 182.775 72.8117 187.42 72.8117C192.065 72.8117 195.695 74.2113 195.695 78.5948C195.695 82.9782 192.065 84.3779 187.42 84.3779ZM187.42 75.4418C185.436 75.4418 184.129 76.4723 184.129 78.5948C184.129 80.7173 185.436 81.7478 187.42 81.7478C189.404 81.7478 190.696 80.7173 190.696 78.5948C190.696 76.4723 189.404 75.4418 187.42 75.4418Z" fill="white"/>
<path d="M170.298 84.3779C165.653 84.3779 162.024 82.9782 162.024 78.5948C162.024 74.2113 165.653 72.8117 170.298 72.8117C174.559 72.8117 177.743 73.996 178.235 77.5797H173.205C172.867 76.2262 171.79 75.4418 170.16 75.4418C168.176 75.4418 167.007 76.4723 167.007 78.5948C167.007 80.7173 168.176 81.7478 170.16 81.7478C171.79 81.7478 172.867 80.9634 173.205 79.6099H178.235C177.743 83.1936 174.559 84.3779 170.298 84.3779Z" fill="white"/>
<path d="M143.526 80.3005V83.9764H138.543V73.2101H152.463V75.7017H143.526V77.9319H151.801L151.417 80.3005H143.526Z" fill="white"/>
<path d="M128.889 84.3779C124.244 84.3779 120.614 82.9782 120.614 78.5948C120.614 74.2113 124.244 72.8117 128.889 72.8117C133.533 72.8117 137.163 74.2113 137.163 78.5948C137.163 82.9782 133.533 84.3779 128.889 84.3779ZM128.889 75.4418C126.904 75.4418 125.597 76.4723 125.597 78.5948C125.597 80.7173 126.904 81.7478 128.889 81.7478C130.873 81.7478 132.165 80.7173 132.165 78.5948C132.165 76.4723 130.873 75.4418 128.889 75.4418Z" fill="white"/>
<path d="M100.268 80.562V83.9764H95.2849V73.2101H107.559C109.635 73.2101 111.035 74.825 111.035 76.886C111.035 78.947 109.635 80.562 107.559 80.562H100.268ZM100.268 75.7017V78.0703H104.929C105.621 78.0703 106.051 77.5781 106.051 76.886C106.051 76.1939 105.621 75.7017 104.929 75.7017H100.268Z" fill="white"/>
<path d="M85.7467 84.3763C81.3941 84.3763 77.8719 83.3305 77.8719 78.9931V73.2101H82.8552V79.5161C82.8552 81.1003 84.1472 81.7463 85.7467 81.7463C87.3463 81.7463 88.6383 81.1003 88.6383 79.5161V73.2101H93.6216V78.9931C93.6216 83.3305 90.0994 84.3763 85.7467 84.3763Z" fill="white"/>
<path d="M68.4183 84.3779C63.7734 84.3779 60.1436 82.9782 60.1436 78.5948C60.1436 74.2113 63.7734 72.8117 68.4183 72.8117C73.0633 72.8117 76.6931 74.2113 76.6931 78.5948C76.6931 82.9782 73.0633 84.3779 68.4183 84.3779ZM68.4183 75.4418C66.4343 75.4418 65.1269 76.4723 65.1269 78.5948C65.1269 80.7173 66.4343 81.7478 68.4183 81.7478C70.4024 81.7478 71.6944 80.7173 71.6944 78.5948C71.6944 76.4723 70.4024 75.4418 68.4183 75.4418Z" fill="white"/>
<path d="M48.4347 80.562V83.9764H43.4514V73.2101H55.7251C57.8014 73.2101 59.2011 74.825 59.2011 76.886C59.2011 78.6394 58.0014 80.0544 56.3711 80.4543L59.078 83.9764H54.0794L51.4647 80.562H48.4347ZM48.4347 75.7017V78.0703H52.972C53.6641 78.0703 54.2178 77.5781 54.2178 76.886C54.2178 76.1939 53.7871 75.7017 53.095 75.7017H48.4347Z" fill="white"/>
<path d="M33.5589 84.3779C28.9294 84.3779 25.1611 82.9782 25.1611 78.5948C25.1611 74.2113 28.9294 72.8117 33.5589 72.8117C37.5117 72.8117 41.7567 73.7345 41.7567 76.826H36.5889C36.4812 75.6725 34.897 75.4418 33.5589 75.4418C31.5748 75.4418 30.1444 76.4723 30.1444 78.5948C30.1444 80.7173 31.5748 81.7478 33.5589 81.7478C34.9431 81.7478 36.0505 81.2402 36.6042 80.2405H33.0667L33.4512 78.0103H41.7567V83.978H39.2651L39.142 82.1169C38.0039 83.5627 36.0659 84.3779 33.5589 84.3779Z" fill="white"/>
</svg>
